<svg width="18" height="21" viewBox="0 0 18 21" fill="none" xmlns="http://www.w3.org/2000/svg">
    <path fill-rule="evenodd" clip-rule="evenodd" d="M8.25 2.625H1.5C0.673 2.625 0 3.298 0 4.125V16.875C0 17.702 0.673 18.375 1.5 18.375H16.5C17.327 18.375 18 17.702 18 16.875V6.5625L11.25 2.625H8.25ZM1.5 1.3125C0.673 1.3125 0 1.9855 0 2.8125V4.125H8.25V2.625H1.5V1.3125ZM16.5 16.1625C16.5 16.9895 15.827 17.6625 15 17.6625H1.5C0.673 17.6625 0 16.9895 0 16.1625V4.125C0 3.298 0.673 2.625 1.5 2.625H8.25V4.125H16.5V16.1625ZM16.5 3.9375H9.75V2.4375H16.5V3.9375ZM16.5 6.5625V14.4375H1.5V6.5625H16.5Z" fill="#B6B6B6"/>
</svg>